<svg width="167" height="50" viewBox="0 0 167 50" fill="none" xmlns="http://www.w3.org/2000/svg">
<path d="M40.352 17.6848C39.0187 17.0942 37.6842 16.8696 36.3505 16.8696C32.1166 16.8692 27.883 19.1323 23.6491 19.1323C22.5873 19.1323 21.5262 18.99 20.4644 18.6343C20.3451 18.5944 20.2254 18.5755 20.1086 18.5755C19.517 18.5755 19 19.059 19 19.7301V31.2456C19 31.704 19.2485 32.1384 19.6476 32.3149C20.981 32.9058 22.3154 33.1304 23.6491 33.1304C27.883 33.1304 32.117 30.8673 36.3509 30.8673C37.4127 30.8673 38.4738 31.0096 39.5356 31.3653C39.6549 31.4053 39.7745 31.4241 39.8914 31.4241C40.483 31.4241 41 30.9407 41 30.2695V18.7544C40.9997 18.2957 40.7511 17.8616 40.352 17.6848ZM20.65 20.5072C21.3416 20.6901 22.0635 20.782 22.8059 20.8313C22.6038 21.8981 21.7156 22.7021 20.65 22.7021V20.5072ZM20.65 30.8517V29.1175C21.8314 29.1175 22.7874 30.1073 22.84 31.3461C22.0655 31.2804 21.3416 31.1171 20.65 30.8517ZM29.9998 28.4845C28.4808 28.4845 27.2499 26.9241 27.2499 25C27.2499 23.0756 28.4812 21.5155 29.9998 21.5155C31.5185 21.5155 32.7498 23.0756 32.7498 25C32.7498 26.9248 31.5181 28.4845 29.9998 28.4845ZM39.3497 29.4928C38.7474 29.3335 38.1222 29.2442 37.4825 29.1864C37.6842 28.2398 38.4278 27.5212 39.3497 27.3978V29.4928ZM39.3497 20.9228C38.2879 20.7809 37.4639 19.8448 37.4312 18.6888C38.1029 18.7675 38.7406 18.9149 39.3497 19.1483V20.9228Z" fill="#0065FC"/>
<path d="M60.072 28.564V30.5H52.184V19.14H59.928V21.076H54.392V23.812H59.176V25.604H54.392V28.564H60.072ZM56.92 18.18L55.544 17.764L56.408 15.86H58.408L56.92 18.18ZM65.3175 30.66C64.6348 30.66 64.0215 30.548 63.4775 30.324C62.9335 30.0893 62.4695 29.7693 62.0855 29.364C61.7015 28.948 61.4028 28.4787 61.1895 27.956C60.9868 27.4333 60.8855 26.884 60.8855 26.308C60.8855 25.5187 61.0615 24.7987 61.4135 24.148C61.7762 23.4867 62.2882 22.9587 62.9495 22.564C63.6108 22.1693 64.3948 21.972 65.3015 21.972C66.2082 21.972 66.9868 22.1693 67.6375 22.564C68.2882 22.9587 68.7735 23.476 69.0935 24.116L66.9975 24.756C66.8162 24.4467 66.5762 24.212 66.2775 24.052C65.9788 23.8813 65.6482 23.796 65.2855 23.796C64.8802 23.796 64.5068 23.9027 64.1655 24.116C63.8348 24.3187 63.5735 24.612 63.3815 24.996C63.1895 25.3693 63.0935 25.8067 63.0935 26.308C63.0935 26.7987 63.1895 27.236 63.3815 27.62C63.5842 27.9933 63.8508 28.292 64.1815 28.516C64.5122 28.7293 64.8802 28.836 65.2855 28.836C65.5415 28.836 65.7815 28.7933 66.0055 28.708C66.2402 28.6227 66.4482 28.5053 66.6295 28.356C66.8108 28.2067 66.9442 28.036 67.0295 27.844L69.1255 28.484C68.9335 28.9 68.6508 29.2733 68.2775 29.604C67.9148 29.9347 67.4828 30.196 66.9815 30.388C66.4908 30.5693 65.9362 30.66 65.3175 30.66ZM74.2386 30.66C73.556 30.66 72.9426 30.548 72.3986 30.324C71.8546 30.0893 71.3906 29.7693 71.0066 29.364C70.6333 28.9587 70.3453 28.4947 70.1426 27.972C69.94 27.4493 69.8386 26.9 69.8386 26.324C69.8386 25.7373 69.94 25.1827 70.1426 24.66C70.3453 24.1373 70.6333 23.6733 71.0066 23.268C71.3906 22.8627 71.8546 22.548 72.3986 22.324C72.9426 22.0893 73.556 21.972 74.2386 21.972C74.9213 21.972 75.5293 22.0893 76.0626 22.324C76.6066 22.548 77.0706 22.8627 77.4546 23.268C77.8386 23.6733 78.1266 24.1373 78.3186 24.66C78.5213 25.1827 78.6226 25.7373 78.6226 26.324C78.6226 26.9 78.5213 27.4493 78.3186 27.972C78.1266 28.4947 77.8386 28.9587 77.4546 29.364C77.0813 29.7693 76.6226 30.0893 76.0786 30.324C75.5346 30.548 74.9213 30.66 74.2386 30.66ZM72.0466 26.324C72.0466 26.8147 72.1426 27.252 72.3346 27.636C72.5266 28.0093 72.788 28.3027 73.1186 28.516C73.4493 28.7293 73.8226 28.836 74.2386 28.836C74.644 28.836 75.012 28.7293 75.3426 28.516C75.6733 28.292 75.9346 27.9933 76.1266 27.62C76.3293 27.236 76.4306 26.7987 76.4306 26.308C76.4306 25.828 76.3293 25.396 76.1266 25.012C75.9346 24.628 75.6733 24.3293 75.3426 24.116C75.012 23.9027 74.644 23.796 74.2386 23.796C73.8226 23.796 73.4493 23.908 73.1186 24.132C72.788 24.3453 72.5266 24.644 72.3346 25.028C72.1426 25.4013 72.0466 25.8333 72.0466 26.324ZM87.8618 30.5H85.7178V25.796C85.7178 25.124 85.6004 24.6333 85.3658 24.324C85.1311 24.0147 84.8058 23.86 84.3898 23.86C84.1018 23.86 83.8084 23.9347 83.5098 24.084C83.2218 24.2333 82.9604 24.4413 82.7258 24.708C82.4911 24.964 82.3204 25.2627 82.2138 25.604V30.5H80.0698V22.116H82.0058V23.668C82.2191 23.3053 82.4911 23.0013 82.8218 22.756C83.1524 22.5 83.5311 22.308 83.9578 22.18C84.3951 22.0413 84.8538 21.972 85.3338 21.972C85.8564 21.972 86.2831 22.068 86.6138 22.26C86.9551 22.4413 87.2111 22.692 87.3818 23.012C87.5631 23.3213 87.6858 23.6733 87.7498 24.068C87.8244 24.4627 87.8618 24.8627 87.8618 25.268V30.5ZM93.598 30.66C92.9153 30.66 92.302 30.548 91.758 30.324C91.214 30.0893 90.75 29.7693 90.366 29.364C89.9927 28.9587 89.7047 28.4947 89.502 27.972C89.2993 27.4493 89.198 26.9 89.198 26.324C89.198 25.7373 89.2993 25.1827 89.502 24.66C89.7047 24.1373 89.9927 23.6733 90.366 23.268C90.75 22.8627 91.214 22.548 91.758 22.324C92.302 22.0893 92.9153 21.972 93.598 21.972C94.2807 21.972 94.8887 22.0893 95.422 22.324C95.966 22.548 96.43 22.8627 96.814 23.268C97.198 23.6733 97.486 24.1373 97.678 24.66C97.8807 25.1827 97.982 25.7373 97.982 26.324C97.982 26.9 97.8807 27.4493 97.678 27.972C97.486 28.4947 97.198 28.9587 96.814 29.364C96.4407 29.7693 95.982 30.0893 95.438 30.324C94.894 30.548 94.2807 30.66 93.598 30.66ZM91.406 26.324C91.406 26.8147 91.502 27.252 91.694 27.636C91.886 28.0093 92.1473 28.3027 92.478 28.516C92.8087 28.7293 93.182 28.836 93.598 28.836C94.0033 28.836 94.3713 28.7293 94.702 28.516C95.0327 28.292 95.294 27.9933 95.486 27.62C95.6887 27.236 95.79 26.7987 95.79 26.308C95.79 25.828 95.6887 25.396 95.486 25.012C95.294 24.628 95.0327 24.3293 94.702 24.116C94.3713 23.9027 94.0033 23.796 93.598 23.796C93.182 23.796 92.8087 23.908 92.478 24.132C92.1473 24.3453 91.886 24.644 91.694 25.028C91.502 25.4013 91.406 25.8333 91.406 26.324ZM112.453 30.5H110.309V25.796C110.309 25.1347 110.192 24.6493 109.957 24.34C109.733 24.02 109.418 23.86 109.013 23.86C108.597 23.86 108.197 24.0253 107.813 24.356C107.44 24.676 107.173 25.0973 107.013 25.62V30.5H104.869V25.796C104.869 25.124 104.752 24.6333 104.517 24.324C104.293 24.0147 103.978 23.86 103.573 23.86C103.157 23.86 102.757 24.02 102.373 24.34C102 24.66 101.733 25.0813 101.573 25.604V30.5H99.4291V22.116H101.365V23.668C101.685 23.124 102.112 22.708 102.645 22.42C103.178 22.1213 103.792 21.972 104.485 21.972C105.178 21.972 105.717 22.1427 106.101 22.484C106.496 22.8253 106.746 23.2467 106.853 23.748C107.194 23.172 107.626 22.7347 108.149 22.436C108.682 22.1267 109.28 21.972 109.941 21.972C110.464 21.972 110.885 22.068 111.205 22.26C111.536 22.4413 111.792 22.692 111.973 23.012C112.154 23.3213 112.277 23.6733 112.341 24.068C112.416 24.4627 112.453 24.8627 112.453 25.268V30.5ZM114.32 30.5V22.116H116.464V30.5H114.32ZM114.32 20.948V18.82H116.464V20.948H114.32ZM121.566 30.66C121.033 30.66 120.542 30.548 120.094 30.324C119.646 30.0893 119.257 29.7747 118.926 29.38C118.595 28.9853 118.339 28.5213 118.158 27.988C117.987 27.4547 117.902 26.8893 117.902 26.292C117.902 25.684 117.998 25.1187 118.19 24.596C118.393 24.0733 118.67 23.6147 119.022 23.22C119.374 22.8253 119.79 22.5213 120.27 22.308C120.75 22.084 121.267 21.972 121.822 21.972C122.462 21.972 123.027 22.1213 123.518 22.42C124.009 22.708 124.409 23.092 124.718 23.572V22.116H126.59V33.908H124.446V29.028C123.806 30.116 122.846 30.66 121.566 30.66ZM122.366 28.836C122.675 28.836 122.953 28.7773 123.198 28.66C123.454 28.5427 123.683 28.3827 123.886 28.18C124.099 27.9667 124.286 27.7267 124.446 27.46V25.476C124.393 25.2413 124.291 25.0227 124.142 24.82C124.003 24.6173 123.833 24.4413 123.63 24.292C123.438 24.132 123.23 24.0093 123.006 23.924C122.782 23.8387 122.558 23.796 122.334 23.796C122.003 23.796 121.699 23.8653 121.422 24.004C121.155 24.1427 120.921 24.3347 120.718 24.58C120.515 24.8147 120.361 25.0867 120.254 25.396C120.147 25.6947 120.094 26.0147 120.094 26.356C120.094 26.8147 120.19 27.2307 120.382 27.604C120.574 27.9773 120.841 28.276 121.182 28.5C121.523 28.724 121.918 28.836 122.366 28.836ZM128.459 27.364V22.116H130.603V26.9C130.603 27.54 130.72 28.0253 130.955 28.356C131.189 28.676 131.536 28.836 131.995 28.836C132.272 28.836 132.544 28.7827 132.811 28.676C133.088 28.5587 133.339 28.388 133.563 28.164C133.797 27.94 133.995 27.6573 134.155 27.316V22.116H136.299V28.1C136.299 28.324 136.336 28.484 136.411 28.58C136.496 28.676 136.629 28.7347 136.811 28.756V30.5C136.597 30.532 136.416 30.5533 136.267 30.564C136.128 30.5853 136 30.596 135.883 30.596C135.499 30.596 135.184 30.5107 134.939 30.34C134.704 30.1587 134.565 29.9133 134.523 29.604L134.475 28.932C134.101 29.4973 133.621 29.9293 133.035 30.228C132.448 30.516 131.803 30.66 131.099 30.66C130.235 30.66 129.579 30.3827 129.131 29.828C128.683 29.2627 128.459 28.4413 128.459 27.364ZM142.317 30.66C141.645 30.66 141.037 30.548 140.493 30.324C139.949 30.0893 139.485 29.7747 139.101 29.38C138.717 28.9747 138.418 28.516 138.205 28.004C138.002 27.4813 137.901 26.932 137.901 26.356C137.901 25.556 138.077 24.8253 138.429 24.164C138.792 23.5027 139.304 22.9747 139.965 22.58C140.637 22.1747 141.426 21.972 142.333 21.972C143.25 21.972 144.034 22.1747 144.685 22.58C145.336 22.9747 145.832 23.5027 146.173 24.164C146.525 24.8147 146.701 25.5187 146.701 26.276C146.701 26.404 146.696 26.5373 146.685 26.676C146.674 26.804 146.664 26.9107 146.653 26.996H140.173C140.216 27.4227 140.338 27.796 140.541 28.116C140.754 28.436 141.021 28.6813 141.341 28.852C141.672 29.012 142.024 29.092 142.397 29.092C142.824 29.092 143.224 28.9907 143.597 28.788C143.981 28.5747 144.242 28.2973 144.381 27.956L146.221 28.468C146.018 28.8947 145.725 29.2733 145.341 29.604C144.968 29.9347 144.525 30.196 144.013 30.388C143.501 30.5693 142.936 30.66 142.317 30.66ZM140.125 25.636H144.509C144.466 25.2093 144.344 24.8413 144.141 24.532C143.949 24.212 143.693 23.9667 143.373 23.796C143.053 23.6147 142.696 23.524 142.301 23.524C141.917 23.524 141.565 23.6147 141.245 23.796C140.936 23.9667 140.68 24.212 140.477 24.532C140.285 24.8413 140.168 25.2093 140.125 25.636Z" fill="black"/>
<path d="M25 1H142C155.255 1 166 11.7452 166 25C166 38.2548 155.255 49 142 49H25C11.7452 49 1 38.2548 1 25C1 11.7452 11.7452 1 25 1Z" stroke="#D9D9D9" stroke-width="2"/>
</svg>
