<svg width="163" height="50" viewBox="0 0 163 50" fill="none" xmlns="http://www.w3.org/2000/svg">
<path d="M32.2396 16.0625C32.2396 17.2016 31.3362 18.125 30.2228 18.125C29.1094 18.125 28.206 17.2016 28.206 16.0625C28.206 14.9234 29.1094 14 30.2228 14C31.3362 14 32.2396 14.9234 32.2396 16.0625ZM29.8867 29.125V34.625C29.8867 35.3855 29.2858 36 28.5421 36C27.7985 36 27.1976 35.3855 27.1976 34.625V25.0387L25.9972 27.084C25.6149 27.7328 24.7888 27.9434 24.1523 27.5523C23.5157 27.1613 23.3098 26.3191 23.6923 25.666L26.1409 21.5023C26.8699 20.2605 28.1808 19.5 29.5968 19.5H30.8488C32.2648 19.5 33.5757 20.2605 34.3068 21.5023L36.7522 25.666C37.1345 26.3191 36.9286 27.1613 36.2942 27.5523C35.6555 27.9434 34.832 27.7328 34.4497 27.084L33.248 25.0387V34.625C33.248 35.3855 32.6472 36 31.9035 36C31.1598 36 30.5589 35.3855 30.5589 34.625V29.125H29.8867Z" fill="#0065FC"/>
<path d="M52.536 30V20.06H59.214V21.754H54.468V24.316H58.416V25.884H54.468V30H52.536ZM59.2875 27.83C59.2875 27.354 59.4182 26.9387 59.6795 26.584C59.9502 26.22 60.3235 25.94 60.7995 25.744C61.2755 25.548 61.8215 25.45 62.4375 25.45C62.7455 25.45 63.0582 25.4733 63.3755 25.52C63.6928 25.5667 63.9682 25.6413 64.2015 25.744V25.352C64.2015 24.8853 64.0615 24.526 63.7815 24.274C63.5108 24.022 63.1048 23.896 62.5635 23.896C62.1622 23.896 61.7795 23.966 61.4155 24.106C61.0515 24.246 60.6688 24.4513 60.2675 24.722L59.6655 23.49C60.1508 23.1727 60.6455 22.9347 61.1495 22.776C61.6628 22.6173 62.1995 22.538 62.7595 22.538C63.8048 22.538 64.6168 22.7993 65.1955 23.322C65.7835 23.8447 66.0775 24.5913 66.0775 25.562V27.9C66.0775 28.096 66.1102 28.236 66.1755 28.32C66.2502 28.404 66.3668 28.4553 66.5255 28.474V30C66.3575 30.028 66.2035 30.0513 66.0635 30.07C65.9328 30.0887 65.8208 30.098 65.7275 30.098C65.3542 30.098 65.0695 30.014 64.8735 29.846C64.6868 29.678 64.5702 29.4727 64.5235 29.23L64.4815 28.852C64.1642 29.2627 63.7675 29.58 63.2915 29.804C62.8155 30.028 62.3302 30.14 61.8355 30.14C61.3502 30.14 60.9115 30.042 60.5195 29.846C60.1368 29.6407 59.8335 29.3653 59.6095 29.02C59.3948 28.6653 59.2875 28.2687 59.2875 27.83ZM63.8515 28.208C63.9542 28.096 64.0382 27.984 64.1035 27.872C64.1688 27.76 64.2015 27.6573 64.2015 27.564V26.822C63.9775 26.7287 63.7348 26.6587 63.4735 26.612C63.2122 26.556 62.9648 26.528 62.7315 26.528C62.2462 26.528 61.8448 26.6353 61.5275 26.85C61.2195 27.0553 61.0655 27.3307 61.0655 27.676C61.0655 27.8627 61.1168 28.04 61.2195 28.208C61.3222 28.376 61.4715 28.5113 61.6675 28.614C61.8635 28.7167 62.0968 28.768 62.3675 28.768C62.6475 28.768 62.9228 28.7167 63.1935 28.614C63.4642 28.502 63.6835 28.3667 63.8515 28.208ZM79.2266 30H77.3506V25.884C77.3506 25.3053 77.2479 24.8807 77.0426 24.61C76.8466 24.33 76.5712 24.19 76.2166 24.19C75.8526 24.19 75.5026 24.3347 75.1666 24.624C74.8399 24.904 74.6066 25.2727 74.4666 25.73V30H72.5906V25.884C72.5906 25.296 72.4879 24.8667 72.2826 24.596C72.0866 24.3253 71.8112 24.19 71.4566 24.19C71.0926 24.19 70.7426 24.33 70.4066 24.61C70.0799 24.89 69.8466 25.2587 69.7066 25.716V30H67.8306V22.664H69.5246V24.022C69.8046 23.546 70.1779 23.182 70.6446 22.93C71.1112 22.6687 71.6479 22.538 72.2546 22.538C72.8612 22.538 73.3326 22.6873 73.6686 22.986C74.0139 23.2847 74.2332 23.6533 74.3266 24.092C74.6252 23.588 75.0032 23.2053 75.4606 22.944C75.9272 22.6733 76.4499 22.538 77.0286 22.538C77.4859 22.538 77.8546 22.622 78.1346 22.79C78.4239 22.9487 78.6479 23.168 78.8066 23.448C78.9652 23.7187 79.0726 24.0267 79.1286 24.372C79.1939 24.7173 79.2266 25.0673 79.2266 25.422V30ZM80.8599 30V22.664H82.7359V30H80.8599ZM80.8599 21.642V19.78H82.7359V21.642H80.8599ZM84.4142 19.78H86.2902V27.648C86.2902 27.984 86.3462 28.2127 86.4582 28.334C86.5702 28.446 86.7242 28.502 86.9202 28.502C87.0696 28.502 87.2236 28.4833 87.3822 28.446C87.5409 28.4087 87.6809 28.362 87.8022 28.306L88.0542 29.734C87.8022 29.8553 87.5082 29.9487 87.1722 30.014C86.8362 30.0793 86.5329 30.112 86.2622 30.112C85.6742 30.112 85.2169 29.958 84.8902 29.65C84.5729 29.3327 84.4142 28.8847 84.4142 28.306V19.78ZM88.8716 30V22.664H90.7476V30H88.8716ZM88.8716 21.642V19.78H90.7476V21.642H88.8716ZM91.9359 27.83C91.9359 27.354 92.0666 26.9387 92.3279 26.584C92.5986 26.22 92.9719 25.94 93.4479 25.744C93.9239 25.548 94.4699 25.45 95.0859 25.45C95.3939 25.45 95.7066 25.4733 96.0239 25.52C96.3413 25.5667 96.6166 25.6413 96.8499 25.744V25.352C96.8499 24.8853 96.7099 24.526 96.4299 24.274C96.1593 24.022 95.7533 23.896 95.2119 23.896C94.8106 23.896 94.4279 23.966 94.0639 24.106C93.6999 24.246 93.3173 24.4513 92.9159 24.722L92.3139 23.49C92.7993 23.1727 93.2939 22.9347 93.7979 22.776C94.3113 22.6173 94.8479 22.538 95.4079 22.538C96.4533 22.538 97.2653 22.7993 97.8439 23.322C98.4319 23.8447 98.7259 24.5913 98.7259 25.562V27.9C98.7259 28.096 98.7586 28.236 98.8239 28.32C98.8986 28.404 99.0153 28.4553 99.1739 28.474V30C99.0059 30.028 98.8519 30.0513 98.7119 30.07C98.5813 30.0887 98.4693 30.098 98.3759 30.098C98.0026 30.098 97.7179 30.014 97.5219 29.846C97.3353 29.678 97.2186 29.4727 97.1719 29.23L97.1299 28.852C96.8126 29.2627 96.4159 29.58 95.9399 29.804C95.4639 30.028 94.9786 30.14 94.4839 30.14C93.9986 30.14 93.5599 30.042 93.1679 29.846C92.7853 29.6407 92.4819 29.3653 92.2579 29.02C92.0433 28.6653 91.9359 28.2687 91.9359 27.83ZM96.4999 28.208C96.6026 28.096 96.6866 27.984 96.7519 27.872C96.8173 27.76 96.8499 27.6573 96.8499 27.564V26.822C96.6259 26.7287 96.3833 26.6587 96.1219 26.612C95.8606 26.556 95.6133 26.528 95.3799 26.528C94.8946 26.528 94.4933 26.6353 94.1759 26.85C93.8679 27.0553 93.7139 27.3307 93.7139 27.676C93.7139 27.8627 93.7653 28.04 93.8679 28.208C93.9706 28.376 94.1199 28.5113 94.3159 28.614C94.5119 28.7167 94.7453 28.768 95.0159 28.768C95.2959 28.768 95.5713 28.7167 95.8419 28.614C96.1126 28.502 96.3319 28.3667 96.4999 28.208ZM100.465 19.78H102.341V27.648C102.341 27.984 102.397 28.2127 102.509 28.334C102.621 28.446 102.775 28.502 102.971 28.502C103.12 28.502 103.274 28.4833 103.433 28.446C103.592 28.4087 103.732 28.362 103.853 28.306L104.105 29.734C103.853 29.8553 103.559 29.9487 103.223 30.014C102.887 30.0793 102.584 30.112 102.313 30.112C101.725 30.112 101.268 29.958 100.941 29.65C100.624 29.3327 100.465 28.8847 100.465 28.306V19.78Z" fill="black"/>
<path d="M25.5 1H138C151.255 1 162 11.7452 162 25C162 38.2548 151.255 49 138 49H25.5C12.2452 49 1.5 38.2548 1.5 25C1.5 11.7452 12.2452 1 25.5 1Z" stroke="#D9D9D9" stroke-width="2"/>
</svg>
