<svg width="163" height="50" viewBox="0 0 163 50" fill="none" xmlns="http://www.w3.org/2000/svg">
<path d="M28.3973 15.2127C28.7107 14.9265 29.1968 14.9304 29.5102 15.2166C30.6191 16.2322 31.6598 17.3262 32.6321 18.5104C33.0741 17.9457 33.5763 17.3301 34.1187 16.8282C34.4361 16.5381 34.9263 16.5381 35.2437 16.8321C36.6339 18.1261 37.8111 19.8357 38.6388 21.459C39.4544 23.0588 39.9968 24.6939 39.9968 25.8467C39.9968 30.85 35.987 35.0769 30.9968 35.0769C25.9504 35.0769 21.9968 30.8461 21.9968 25.8428C21.9968 24.3371 22.712 22.4981 23.8209 20.6787C24.9419 18.8319 26.525 16.9066 28.3973 15.2127ZM31.0651 31.3127C32.0816 31.3127 32.9816 31.0382 33.8294 30.4893C35.5209 29.3365 35.975 27.0309 34.9584 25.2193C34.7776 24.8664 34.3156 24.8429 34.0544 25.1409L33.0419 26.2898C32.7767 26.5878 32.2986 26.5799 32.0495 26.2702C31.3866 25.4468 30.2013 23.9763 29.5263 23.1412C29.2732 22.8275 28.791 22.8235 28.5339 23.1372C27.1758 24.8037 26.4928 25.8545 26.4928 27.0348C26.4968 29.7207 28.5299 31.3127 31.0651 31.3127Z" fill="#0065FC"/>
<path d="M54.468 23.616V30H52.536V20.06H54.076L59.214 26.612V20.074H61.146V30H59.536L54.468 23.616ZM66.2967 30.14C65.6994 30.14 65.1627 30.042 64.6867 29.846C64.2107 29.6407 63.8047 29.3607 63.4687 29.006C63.142 28.6513 62.89 28.2453 62.7127 27.788C62.5354 27.3307 62.4467 26.85 62.4467 26.346C62.4467 25.8327 62.5354 25.3473 62.7127 24.89C62.89 24.4327 63.142 24.0267 63.4687 23.672C63.8047 23.3173 64.2107 23.042 64.6867 22.846C65.1627 22.6407 65.6994 22.538 66.2967 22.538C66.894 22.538 67.426 22.6407 67.8927 22.846C68.3687 23.042 68.7747 23.3173 69.1107 23.672C69.4467 24.0267 69.6987 24.4327 69.8667 24.89C70.044 25.3473 70.1327 25.8327 70.1327 26.346C70.1327 26.85 70.044 27.3307 69.8667 27.788C69.6987 28.2453 69.4467 28.6513 69.1107 29.006C68.784 29.3607 68.3827 29.6407 67.9067 29.846C67.4307 30.042 66.894 30.14 66.2967 30.14ZM64.3787 26.346C64.3787 26.7753 64.4627 27.158 64.6307 27.494C64.7987 27.8207 65.0274 28.0773 65.3167 28.264C65.606 28.4507 65.9327 28.544 66.2967 28.544C66.6514 28.544 66.9734 28.4507 67.2627 28.264C67.552 28.068 67.7807 27.8067 67.9487 27.48C68.126 27.144 68.2147 26.7613 68.2147 26.332C68.2147 25.912 68.126 25.534 67.9487 25.198C67.7807 24.862 67.552 24.6007 67.2627 24.414C66.9734 24.2273 66.6514 24.134 66.2967 24.134C65.9327 24.134 65.606 24.232 65.3167 24.428C65.0274 24.6147 64.7987 24.876 64.6307 25.212C64.4627 25.5387 64.3787 25.9167 64.3787 26.346ZM74.1009 30.14C73.4756 30.14 72.8783 30.0373 72.3089 29.832C71.7396 29.6267 71.2496 29.3233 70.8389 28.922L71.5109 27.704C71.9496 28.0587 72.3789 28.32 72.7989 28.488C73.2283 28.656 73.6389 28.74 74.0309 28.74C74.3949 28.74 74.6843 28.6747 74.8989 28.544C75.1229 28.4133 75.2349 28.2173 75.2349 27.956C75.2349 27.7787 75.1743 27.6433 75.0529 27.55C74.9316 27.4473 74.7543 27.3587 74.5209 27.284C74.2969 27.2093 74.0216 27.1253 73.6949 27.032C73.1536 26.8547 72.7009 26.682 72.3369 26.514C71.9729 26.346 71.6976 26.136 71.5109 25.884C71.3336 25.6227 71.2449 25.2913 71.2449 24.89C71.2449 24.4047 71.3663 23.9893 71.6089 23.644C71.8609 23.2893 72.2063 23.014 72.6449 22.818C73.0929 22.622 73.6156 22.524 74.2129 22.524C74.7356 22.524 75.2303 22.608 75.6969 22.776C76.1636 22.9347 76.5883 23.196 76.9709 23.56L76.2149 24.75C75.8416 24.4607 75.4869 24.2507 75.1509 24.12C74.8149 23.98 74.4743 23.91 74.1289 23.91C73.9329 23.91 73.7463 23.9333 73.5689 23.98C73.4009 24.0267 73.2609 24.106 73.1489 24.218C73.0463 24.3207 72.9949 24.47 72.9949 24.666C72.9949 24.8433 73.0416 24.9833 73.1349 25.086C73.2376 25.1793 73.3869 25.2633 73.5829 25.338C73.7883 25.4127 74.0356 25.4967 74.3249 25.59C74.9129 25.758 75.4076 25.9307 75.8089 26.108C76.2196 26.2853 76.5276 26.5047 76.7329 26.766C76.9383 27.018 77.0409 27.368 77.0409 27.816C77.0409 28.544 76.7749 29.1133 76.2429 29.524C75.7109 29.9347 74.9969 30.14 74.1009 30.14ZM86.0762 30.14C85.5068 30.14 85.0028 30.014 84.5642 29.762C84.1348 29.5007 83.7988 29.1507 83.5562 28.712V32.982H81.6802V22.664H83.3182V23.924C83.5982 23.4947 83.9528 23.1587 84.3822 22.916C84.8115 22.664 85.3015 22.538 85.8522 22.538C86.3468 22.538 86.7995 22.636 87.2102 22.832C87.6302 23.028 87.9942 23.3033 88.3022 23.658C88.6102 24.0033 88.8482 24.4047 89.0162 24.862C89.1935 25.31 89.2822 25.7953 89.2822 26.318C89.2822 27.0273 89.1422 27.6713 88.8622 28.25C88.5915 28.8287 88.2135 29.2907 87.7282 29.636C87.2522 29.972 86.7015 30.14 86.0762 30.14ZM85.4462 28.544C85.7355 28.544 85.9968 28.4833 86.2302 28.362C86.4635 28.2407 86.6642 28.0773 86.8322 27.872C87.0095 27.6573 87.1402 27.4193 87.2242 27.158C87.3175 26.8873 87.3642 26.6073 87.3642 26.318C87.3642 26.01 87.3128 25.7253 87.2102 25.464C87.1168 25.2027 86.9768 24.974 86.7902 24.778C86.6035 24.5727 86.3842 24.414 86.1322 24.302C85.8895 24.19 85.6235 24.134 85.3342 24.134C85.1568 24.134 84.9748 24.1667 84.7882 24.232C84.6108 24.288 84.4382 24.372 84.2702 24.484C84.1022 24.596 83.9528 24.7267 83.8222 24.876C83.7008 25.0253 83.6122 25.1887 83.5562 25.366V27.088C83.6682 27.3587 83.8175 27.606 84.0042 27.83C84.2002 28.054 84.4242 28.2313 84.6762 28.362C84.9282 28.4833 85.1848 28.544 85.4462 28.544ZM93.9552 30.14C93.3672 30.14 92.8352 30.042 92.3592 29.846C91.8832 29.6407 91.4772 29.3653 91.1412 29.02C90.8052 28.6653 90.5439 28.264 90.3572 27.816C90.1799 27.3587 90.0912 26.878 90.0912 26.374C90.0912 25.674 90.2452 25.0347 90.5532 24.456C90.8706 23.8773 91.3186 23.4153 91.8972 23.07C92.4852 22.7153 93.1759 22.538 93.9692 22.538C94.7719 22.538 95.4579 22.7153 96.0272 23.07C96.5966 23.4153 97.0306 23.8773 97.3292 24.456C97.6372 25.0253 97.7912 25.6413 97.7912 26.304C97.7912 26.416 97.7866 26.5327 97.7772 26.654C97.7679 26.766 97.7586 26.8593 97.7492 26.934H92.0792C92.1166 27.3073 92.2239 27.634 92.4012 27.914C92.5879 28.194 92.8212 28.4087 93.1012 28.558C93.3906 28.698 93.6986 28.768 94.0252 28.768C94.3986 28.768 94.7486 28.6793 95.0752 28.502C95.4112 28.3153 95.6399 28.0727 95.7612 27.774L97.3712 28.222C97.1939 28.5953 96.9372 28.9267 96.6012 29.216C96.2746 29.5053 95.8872 29.734 95.4392 29.902C94.9912 30.0607 94.4966 30.14 93.9552 30.14ZM92.0372 25.744H95.8732C95.8359 25.3707 95.7286 25.0487 95.5512 24.778C95.3832 24.498 95.1592 24.2833 94.8792 24.134C94.5992 23.9753 94.2866 23.896 93.9412 23.896C93.6052 23.896 93.2972 23.9753 93.0172 24.134C92.7466 24.2833 92.5226 24.498 92.3452 24.778C92.1772 25.0487 92.0746 25.3707 92.0372 25.744ZM94.5572 21.81L93.3532 21.446L94.1092 19.78H95.8592L94.5572 21.81ZM103.33 30.14C102.761 30.14 102.257 30.014 101.818 29.762C101.389 29.5007 101.053 29.1507 100.81 28.712V32.982H98.9341V22.664H100.572V23.924C100.852 23.4947 101.207 23.1587 101.636 22.916C102.065 22.664 102.555 22.538 103.106 22.538C103.601 22.538 104.053 22.636 104.464 22.832C104.884 23.028 105.248 23.3033 105.556 23.658C105.864 24.0033 106.102 24.4047 106.27 24.862C106.447 25.31 106.536 25.7953 106.536 26.318C106.536 27.0273 106.396 27.6713 106.116 28.25C105.845 28.8287 105.467 29.2907 104.982 29.636C104.506 29.972 103.955 30.14 103.33 30.14ZM102.7 28.544C102.989 28.544 103.251 28.4833 103.484 28.362C103.717 28.2407 103.918 28.0773 104.086 27.872C104.263 27.6573 104.394 27.4193 104.478 27.158C104.571 26.8873 104.618 26.6073 104.618 26.318C104.618 26.01 104.567 25.7253 104.464 25.464C104.371 25.2027 104.231 24.974 104.044 24.778C103.857 24.5727 103.638 24.414 103.386 24.302C103.143 24.19 102.877 24.134 102.588 24.134C102.411 24.134 102.229 24.1667 102.042 24.232C101.865 24.288 101.692 24.372 101.524 24.484C101.356 24.596 101.207 24.7267 101.076 24.876C100.955 25.0253 100.866 25.1887 100.81 25.366V27.088C100.922 27.3587 101.071 27.606 101.258 27.83C101.454 28.054 101.678 28.2313 101.93 28.362C102.182 28.4833 102.439 28.544 102.7 28.544ZM107.807 30V22.664H109.683V30H107.807ZM107.807 21.642V19.78H109.683V21.642H107.807ZM115.771 29.622C115.613 29.6873 115.421 29.762 115.197 29.846C114.973 29.93 114.731 29.9953 114.469 30.042C114.217 30.098 113.961 30.126 113.699 30.126C113.354 30.126 113.037 30.0653 112.747 29.944C112.458 29.8227 112.225 29.6313 112.047 29.37C111.879 29.0993 111.795 28.7493 111.795 28.32V24.106H110.829V22.664H111.795V20.284H113.671V22.664H115.211V24.106H113.671V27.69C113.681 27.942 113.751 28.124 113.881 28.236C114.012 28.348 114.175 28.404 114.371 28.404C114.567 28.404 114.759 28.3713 114.945 28.306C115.132 28.2407 115.281 28.1847 115.393 28.138L115.771 29.622ZM120.069 30.14C119.481 30.14 118.949 30.042 118.473 29.846C117.997 29.6407 117.591 29.3653 117.255 29.02C116.919 28.6653 116.657 28.264 116.471 27.816C116.293 27.3587 116.205 26.878 116.205 26.374C116.205 25.674 116.359 25.0347 116.667 24.456C116.984 23.8773 117.432 23.4153 118.011 23.07C118.599 22.7153 119.289 22.538 120.083 22.538C120.885 22.538 121.571 22.7153 122.141 23.07C122.71 23.4153 123.144 23.8773 123.443 24.456C123.751 25.0253 123.905 25.6413 123.905 26.304C123.905 26.416 123.9 26.5327 123.891 26.654C123.881 26.766 123.872 26.8593 123.863 26.934H118.193C118.23 27.3073 118.337 27.634 118.515 27.914C118.701 28.194 118.935 28.4087 119.215 28.558C119.504 28.698 119.812 28.768 120.139 28.768C120.512 28.768 120.862 28.6793 121.189 28.502C121.525 28.3153 121.753 28.0727 121.875 27.774L123.485 28.222C123.307 28.5953 123.051 28.9267 122.715 29.216C122.388 29.5053 122.001 29.734 121.553 29.902C121.105 30.0607 120.61 30.14 120.069 30.14ZM118.151 25.744H121.987C121.949 25.3707 121.842 25.0487 121.665 24.778C121.497 24.498 121.273 24.2833 120.993 24.134C120.713 23.9753 120.4 23.896 120.055 23.896C119.719 23.896 119.411 23.9753 119.131 24.134C118.86 24.2833 118.636 24.498 118.459 24.778C118.291 25.0487 118.188 25.3707 118.151 25.744ZM127.749 30.14C127.124 30.14 126.527 30.0373 125.957 29.832C125.388 29.6267 124.898 29.3233 124.487 28.922L125.159 27.704C125.598 28.0587 126.027 28.32 126.447 28.488C126.877 28.656 127.287 28.74 127.679 28.74C128.043 28.74 128.333 28.6747 128.547 28.544C128.771 28.4133 128.883 28.2173 128.883 27.956C128.883 27.7787 128.823 27.6433 128.701 27.55C128.58 27.4473 128.403 27.3587 128.169 27.284C127.945 27.2093 127.67 27.1253 127.343 27.032C126.802 26.8547 126.349 26.682 125.985 26.514C125.621 26.346 125.346 26.136 125.159 25.884C124.982 25.6227 124.893 25.2913 124.893 24.89C124.893 24.4047 125.015 23.9893 125.257 23.644C125.509 23.2893 125.855 23.014 126.293 22.818C126.741 22.622 127.264 22.524 127.861 22.524C128.384 22.524 128.879 22.608 129.345 22.776C129.812 22.9347 130.237 23.196 130.619 23.56L129.863 24.75C129.49 24.4607 129.135 24.2507 128.799 24.12C128.463 23.98 128.123 23.91 127.777 23.91C127.581 23.91 127.395 23.9333 127.217 23.98C127.049 24.0267 126.909 24.106 126.797 24.218C126.695 24.3207 126.643 24.47 126.643 24.666C126.643 24.8433 126.69 24.9833 126.783 25.086C126.886 25.1793 127.035 25.2633 127.231 25.338C127.437 25.4127 127.684 25.4967 127.973 25.59C128.561 25.758 129.056 25.9307 129.457 26.108C129.868 26.2853 130.176 26.5047 130.381 26.766C130.587 27.018 130.689 27.368 130.689 27.816C130.689 28.544 130.423 29.1133 129.891 29.524C129.359 29.9347 128.645 30.14 127.749 30.14Z" fill="black"/>
<path d="M25.5 1H138C151.255 1 162 11.7452 162 25C162 38.2548 151.255 49 138 49H25.5C12.2452 49 1.5 38.2548 1.5 25C1.5 11.7452 12.2452 1 25.5 1Z" stroke="#D9D9D9" stroke-width="2"/>
</svg>
