<svg width="164" height="50" viewBox="0 0 164 50" fill="none" xmlns="http://www.w3.org/2000/svg">
<path d="M19 22.2283V21.9854C19 19.0586 21.1708 16.5622 24.1305 16.0816C26.0512 15.7637 28.0836 16.386 29.4844 17.7531L30 18.2547L30.477 17.7531C31.9164 16.386 33.9102 15.7637 35.8695 16.0816C38.8301 16.5622 41 19.0586 41 21.9854V22.2283C41 23.966 40.2609 25.6283 38.9547 26.8132L31.1902 33.8769C30.868 34.17 30.4426 34.3333 30 34.3333C29.5574 34.3333 29.132 34.17 28.8098 33.8769L21.0449 26.8132C19.7404 25.6283 19 23.966 19 22.2283H19Z" fill="#0065FC"/>
<path d="M52.184 30.5V19.14H57.208C57.7307 19.14 58.2107 19.2467 58.648 19.46C59.096 19.6733 59.48 19.9613 59.8 20.324C60.1307 20.6867 60.3813 21.092 60.552 21.54C60.7333 21.988 60.824 22.4467 60.824 22.916C60.824 23.396 60.7387 23.86 60.568 24.308C60.408 24.7453 60.1733 25.1293 59.864 25.46C59.5547 25.7907 59.192 26.0467 58.776 26.228L61.368 30.5H58.936L56.6 26.692H54.392V30.5H52.184ZM54.392 24.756H57.16C57.4373 24.756 57.6827 24.676 57.896 24.516C58.1093 24.3453 58.28 24.1213 58.408 23.844C58.536 23.5667 58.6 23.2573 58.6 22.916C58.6 22.5533 58.5253 22.2387 58.376 21.972C58.2267 21.6947 58.0347 21.476 57.8 21.316C57.576 21.156 57.3307 21.076 57.064 21.076H54.392V24.756ZM66.2074 30.66C65.5247 30.66 64.9114 30.548 64.3674 30.324C63.8234 30.0893 63.3594 29.7693 62.9754 29.364C62.602 28.9587 62.314 28.4947 62.1114 27.972C61.9087 27.4493 61.8074 26.9 61.8074 26.324C61.8074 25.7373 61.9087 25.1827 62.1114 24.66C62.314 24.1373 62.602 23.6733 62.9754 23.268C63.3594 22.8627 63.8234 22.548 64.3674 22.324C64.9114 22.0893 65.5247 21.972 66.2074 21.972C66.89 21.972 67.498 22.0893 68.0314 22.324C68.5754 22.548 69.0394 22.8627 69.4234 23.268C69.8074 23.6733 70.0954 24.1373 70.2874 24.66C70.49 25.1827 70.5914 25.7373 70.5914 26.324C70.5914 26.9 70.49 27.4493 70.2874 27.972C70.0954 28.4947 69.8074 28.9587 69.4234 29.364C69.05 29.7693 68.5914 30.0893 68.0474 30.324C67.5034 30.548 66.89 30.66 66.2074 30.66ZM64.0154 26.324C64.0154 26.8147 64.1114 27.252 64.3034 27.636C64.4954 28.0093 64.7567 28.3027 65.0874 28.516C65.418 28.7293 65.7914 28.836 66.2074 28.836C66.6127 28.836 66.9807 28.7293 67.3114 28.516C67.642 28.292 67.9034 27.9933 68.0954 27.62C68.298 27.236 68.3994 26.7987 68.3994 26.308C68.3994 25.828 68.298 25.396 68.0954 25.012C67.9034 24.628 67.642 24.3293 67.3114 24.116C66.9807 23.9027 66.6127 23.796 66.2074 23.796C65.7914 23.796 65.418 23.908 65.0874 24.132C64.7567 24.3453 64.4954 24.644 64.3034 25.028C64.1114 25.4013 64.0154 25.8333 64.0154 26.324ZM85.0625 30.5H82.9185V25.796C82.9185 25.1347 82.8012 24.6493 82.5665 24.34C82.3425 24.02 82.0278 23.86 81.6225 23.86C81.2065 23.86 80.8065 24.0253 80.4225 24.356C80.0492 24.676 79.7825 25.0973 79.6225 25.62V30.5H77.4785V25.796C77.4785 25.124 77.3612 24.6333 77.1265 24.324C76.9025 24.0147 76.5878 23.86 76.1825 23.86C75.7665 23.86 75.3665 24.02 74.9825 24.34C74.6092 24.66 74.3425 25.0813 74.1825 25.604V30.5H72.0385V22.116H73.9745V23.668C74.2945 23.124 74.7212 22.708 75.2545 22.42C75.7878 22.1213 76.4012 21.972 77.0945 21.972C77.7878 21.972 78.3265 22.1427 78.7105 22.484C79.1052 22.8253 79.3558 23.2467 79.4625 23.748C79.8038 23.172 80.2358 22.7347 80.7585 22.436C81.2918 22.1267 81.8892 21.972 82.5505 21.972C83.0732 21.972 83.4945 22.068 83.8145 22.26C84.1452 22.4413 84.4012 22.692 84.5825 23.012C84.7638 23.3213 84.8865 23.6733 84.9505 24.068C85.0252 24.4627 85.0625 24.8627 85.0625 25.268V30.5ZM86.3531 28.02C86.3531 27.476 86.5025 27.0013 86.8011 26.596C87.1105 26.18 87.5371 25.86 88.0811 25.636C88.6251 25.412 89.2491 25.3 89.9531 25.3C90.3051 25.3 90.6625 25.3267 91.0251 25.38C91.3878 25.4333 91.7025 25.5187 91.9691 25.636V25.188C91.9691 24.6547 91.8091 24.244 91.4891 23.956C91.1798 23.668 90.7158 23.524 90.0971 23.524C89.6385 23.524 89.2011 23.604 88.7851 23.764C88.3691 23.924 87.9318 24.1587 87.4731 24.468L86.7851 23.06C87.3398 22.6973 87.9051 22.4253 88.4811 22.244C89.0678 22.0627 89.6811 21.972 90.3211 21.972C91.5158 21.972 92.4438 22.2707 93.1051 22.868C93.7771 23.4653 94.1131 24.3187 94.1131 25.428V28.1C94.1131 28.324 94.1505 28.484 94.2251 28.58C94.3105 28.676 94.4438 28.7347 94.6251 28.756V30.5C94.4331 30.532 94.2571 30.5587 94.0971 30.58C93.9478 30.6013 93.8198 30.612 93.7131 30.612C93.2865 30.612 92.9611 30.516 92.7371 30.324C92.5238 30.132 92.3905 29.8973 92.3371 29.62L92.2891 29.188C91.9265 29.6573 91.4731 30.02 90.9291 30.276C90.3851 30.532 89.8305 30.66 89.2651 30.66C88.7105 30.66 88.2091 30.548 87.7611 30.324C87.3238 30.0893 86.9771 29.7747 86.7211 29.38C86.4758 28.9747 86.3531 28.5213 86.3531 28.02ZM91.5691 28.452C91.6865 28.324 91.7825 28.196 91.8571 28.068C91.9318 27.94 91.9691 27.8227 91.9691 27.716V26.868C91.7131 26.7613 91.4358 26.6813 91.1371 26.628C90.8385 26.564 90.5558 26.532 90.2891 26.532C89.7345 26.532 89.2758 26.6547 88.9131 26.9C88.5611 27.1347 88.3851 27.4493 88.3851 27.844C88.3851 28.0573 88.4438 28.26 88.5611 28.452C88.6785 28.644 88.8491 28.7987 89.0731 28.916C89.2971 29.0333 89.5638 29.092 89.8731 29.092C90.1931 29.092 90.5078 29.0333 90.8171 28.916C91.1265 28.788 91.3771 28.6333 91.5691 28.452ZM103.909 30.5H101.765V25.796C101.765 25.124 101.647 24.6333 101.413 24.324C101.178 24.0147 100.853 23.86 100.437 23.86C100.149 23.86 99.8553 23.9347 99.5566 24.084C99.2686 24.2333 99.0073 24.4413 98.7726 24.708C98.538 24.964 98.3673 25.2627 98.2606 25.604V30.5H96.1166V22.116H98.0526V23.668C98.266 23.3053 98.538 23.0013 98.8686 22.756C99.1993 22.5 99.578 22.308 100.005 22.18C100.442 22.0413 100.901 21.972 101.381 21.972C101.903 21.972 102.33 22.068 102.661 22.26C103.002 22.4413 103.258 22.692 103.429 23.012C103.61 23.3213 103.733 23.6733 103.797 24.068C103.871 24.4627 103.909 24.8627 103.909 25.268V30.5ZM110.75 30.068C110.569 30.1427 110.35 30.228 110.094 30.324C109.838 30.42 109.561 30.4947 109.262 30.548C108.974 30.612 108.681 30.644 108.382 30.644C107.987 30.644 107.625 30.5747 107.294 30.436C106.963 30.2973 106.697 30.0787 106.494 29.78C106.302 29.4707 106.206 29.0707 106.206 28.58V23.764H105.102V22.116H106.206V19.396H108.35V22.116H110.11V23.764H108.35V27.86C108.361 28.148 108.441 28.356 108.59 28.484C108.739 28.612 108.926 28.676 109.15 28.676C109.374 28.676 109.593 28.6387 109.806 28.564C110.019 28.4893 110.19 28.4253 110.318 28.372L110.75 30.068ZM111.867 30.5V22.116H114.011V30.5H111.867ZM111.867 20.948V18.82H114.011V20.948H111.867ZM119.113 30.66C118.579 30.66 118.089 30.548 117.641 30.324C117.193 30.0893 116.803 29.7747 116.473 29.38C116.142 28.9853 115.886 28.5213 115.705 27.988C115.534 27.4547 115.449 26.8893 115.449 26.292C115.449 25.684 115.545 25.1187 115.737 24.596C115.939 24.0733 116.217 23.6147 116.569 23.22C116.921 22.8253 117.337 22.5213 117.817 22.308C118.297 22.084 118.814 21.972 119.369 21.972C120.009 21.972 120.574 22.1213 121.065 22.42C121.555 22.708 121.955 23.092 122.265 23.572V22.116H124.137V33.908H121.993V29.028C121.353 30.116 120.393 30.66 119.113 30.66ZM119.913 28.836C120.222 28.836 120.499 28.7773 120.745 28.66C121.001 28.5427 121.23 28.3827 121.433 28.18C121.646 27.9667 121.833 27.7267 121.993 27.46V25.476C121.939 25.2413 121.838 25.0227 121.689 24.82C121.55 24.6173 121.379 24.4413 121.177 24.292C120.985 24.132 120.777 24.0093 120.553 23.924C120.329 23.8387 120.105 23.796 119.881 23.796C119.55 23.796 119.246 23.8653 118.969 24.004C118.702 24.1427 118.467 24.3347 118.265 24.58C118.062 24.8147 117.907 25.0867 117.801 25.396C117.694 25.6947 117.641 26.0147 117.641 26.356C117.641 26.8147 117.737 27.2307 117.929 27.604C118.121 27.9773 118.387 28.276 118.729 28.5C119.07 28.724 119.465 28.836 119.913 28.836ZM126.005 27.364V22.116H128.149V26.9C128.149 27.54 128.267 28.0253 128.501 28.356C128.736 28.676 129.083 28.836 129.541 28.836C129.819 28.836 130.091 28.7827 130.357 28.676C130.635 28.5587 130.885 28.388 131.109 28.164C131.344 27.94 131.541 27.6573 131.701 27.316V22.116H133.845V28.1C133.845 28.324 133.883 28.484 133.957 28.58C134.043 28.676 134.176 28.7347 134.357 28.756V30.5C134.144 30.532 133.963 30.5533 133.813 30.564C133.675 30.5853 133.547 30.596 133.429 30.596C133.045 30.596 132.731 30.5107 132.485 30.34C132.251 30.1587 132.112 29.9133 132.069 29.604L132.021 28.932C131.648 29.4973 131.168 29.9293 130.581 30.228C129.995 30.516 129.349 30.66 128.645 30.66C127.781 30.66 127.125 30.3827 126.677 29.828C126.229 29.2627 126.005 28.4413 126.005 27.364ZM139.864 30.66C139.192 30.66 138.584 30.548 138.04 30.324C137.496 30.0893 137.032 29.7747 136.648 29.38C136.264 28.9747 135.965 28.516 135.752 28.004C135.549 27.4813 135.448 26.932 135.448 26.356C135.448 25.556 135.624 24.8253 135.976 24.164C136.339 23.5027 136.851 22.9747 137.512 22.58C138.184 22.1747 138.973 21.972 139.88 21.972C140.797 21.972 141.581 22.1747 142.232 22.58C142.883 22.9747 143.379 23.5027 143.72 24.164C144.072 24.8147 144.248 25.5187 144.248 26.276C144.248 26.404 144.243 26.5373 144.232 26.676C144.221 26.804 144.211 26.9107 144.2 26.996H137.72C137.763 27.4227 137.885 27.796 138.088 28.116C138.301 28.436 138.568 28.6813 138.888 28.852C139.219 29.012 139.571 29.092 139.944 29.092C140.371 29.092 140.771 28.9907 141.144 28.788C141.528 28.5747 141.789 28.2973 141.928 27.956L143.768 28.468C143.565 28.8947 143.272 29.2733 142.888 29.604C142.515 29.9347 142.072 30.196 141.56 30.388C141.048 30.5693 140.483 30.66 139.864 30.66ZM137.672 25.636H142.056C142.013 25.2093 141.891 24.8413 141.688 24.532C141.496 24.212 141.24 23.9667 140.92 23.796C140.6 23.6147 140.243 23.524 139.848 23.524C139.464 23.524 139.112 23.6147 138.792 23.796C138.483 23.9667 138.227 24.212 138.024 24.532C137.832 24.8413 137.715 25.2093 137.672 25.636Z" fill="black"/>
<path d="M25 1H139C152.255 1 163 11.7452 163 25C163 38.2548 152.255 49 139 49H25C11.7452 49 1 38.2548 1 25C1 11.7452 11.7452 1 25 1Z" stroke="#D9D9D9" stroke-width="2"/>
</svg>
